<svg width="51" height="51" viewBox="0 0 51 51" fill="none" xmlns="http://www.w3.org/2000/svg">
<circle cx="25.5" cy="25.5" r="25.5" fill="url(#paint0_linear_949_390)"/>
<path d="M20.2811 16.9451C21.1532 14.393 24.6794 14.3157 25.7134 16.7132L25.8009 16.9465L26.9777 20.3882C27.2474 21.1775 27.6833 21.8998 28.2559 22.5063C28.8284 23.1129 29.5244 23.5896 30.2969 23.9042L30.6134 24.0224L34.055 25.1978C36.6071 26.0699 36.6844 29.5961 34.2884 30.6301L34.055 30.7176L30.6134 31.8945C29.8238 32.164 29.1012 32.5997 28.4944 33.1723C27.8876 33.7449 27.4107 34.441 27.0959 35.2136L26.9777 35.5286L25.8023 38.9717C24.9302 41.5238 21.404 41.6011 20.3715 39.2051L20.2811 38.9717L19.1057 35.5301C18.8361 34.7405 18.4004 34.018 17.8278 33.4111C17.2552 32.8043 16.5591 32.3274 15.7865 32.0126L15.4715 31.8945L12.0298 30.719C9.47628 29.847 9.39899 26.3207 11.7965 25.2882L12.0298 25.1978L15.4715 24.0224C16.2608 23.7527 16.9831 23.3168 17.5896 22.7442C18.1961 22.1717 18.6728 21.4757 18.9875 20.7032L19.1057 20.3882L20.2811 16.9451ZM34.7084 11.9167C34.9812 11.9167 35.2485 11.9933 35.48 12.1376C35.7115 12.282 35.8979 12.4884 36.018 12.7334L36.0879 12.904L36.5984 14.4003L38.0961 14.9107C38.3695 15.0036 38.6092 15.1756 38.7847 15.4048C38.9603 15.6341 39.0639 15.9103 39.0823 16.1984C39.1007 16.4866 39.0332 16.7738 38.8883 17.0235C38.7433 17.2733 38.5275 17.4744 38.2682 17.6013L38.0961 17.6713L36.5998 18.1817L36.0894 19.6795C35.9964 19.9528 35.8243 20.1923 35.5949 20.3678C35.3656 20.5432 35.0893 20.6466 34.8012 20.6649C34.513 20.6832 34.2259 20.6155 33.9763 20.4704C33.7266 20.3254 33.5256 20.1095 33.3988 19.8501L33.3288 19.6795L32.8184 18.1832L31.3207 17.6728C31.0472 17.5799 30.8076 17.4079 30.632 17.1787C30.4564 16.9494 30.3528 16.6732 30.3344 16.3851C30.316 16.0969 30.3835 15.8097 30.5285 15.56C30.6734 15.3102 30.8892 15.1091 31.1486 14.9822L31.3207 14.9122L32.8169 14.4017L33.3273 12.904C33.4257 12.6159 33.6117 12.3658 33.8594 12.1887C34.107 12.0117 34.4039 11.9166 34.7084 11.9167Z" fill="white"/>
<defs>
<linearGradient id="paint0_linear_949_390" x1="25.5" y1="0" x2="25.5" y2="51" gradientUnits="userSpaceOnUse">
<stop stop-color="#F3ADCE"/>
<stop offset="1" stop-color="#C071B4"/>
</linearGradient>
</defs>
</svg>
