<svg width="53" height="53" viewBox="0 0 53 53" fill="none" xmlns="http://www.w3.org/2000/svg">
<circle cx="26.5" cy="26.5" r="26.5" fill="url(#paint0_linear_949_389)"/>
<path fill-rule="evenodd" clip-rule="evenodd" d="M26.4998 38.4584C26.9183 38.4585 27.3221 38.6121 27.6348 38.8901C27.9475 39.1682 28.1473 39.5513 28.1962 39.9669L28.2082 40.1667V41.8751C28.2077 42.3105 28.041 42.7293 27.7421 43.0459C27.4431 43.3625 27.0346 43.5531 26.6 43.5786C26.1653 43.6041 25.7373 43.4627 25.4034 43.1832C25.0695 42.9037 24.8549 42.5073 24.8035 42.075L24.7915 41.8751V40.1667C24.7915 39.7137 24.9715 39.2791 25.2919 38.9588C25.6122 38.6384 26.0468 38.4584 26.4998 38.4584ZM18.0436 34.9563C18.3639 35.2767 18.5438 35.7111 18.5438 36.1641C18.5438 36.6171 18.3639 37.0516 18.0436 37.3719L16.8358 38.5797C16.6782 38.7429 16.4897 38.873 16.2813 38.9625C16.0729 39.0521 15.8487 39.0992 15.6219 39.1012C15.395 39.1031 15.1701 39.0599 14.9601 38.974C14.7502 38.8881 14.5594 38.7613 14.399 38.6009C14.2386 38.4405 14.1118 38.2497 14.0259 38.0398C13.94 37.8298 13.8968 37.6049 13.8987 37.3781C13.9007 37.1512 13.9478 36.9271 14.0374 36.7186C14.1269 36.5102 14.257 36.3217 14.4202 36.1641L15.628 34.9563C15.9484 34.6361 16.3828 34.4562 16.8358 34.4562C17.2888 34.4562 17.7232 34.6361 18.0436 34.9563ZM37.3717 34.9563L38.5795 36.1641C38.8906 36.4863 39.0628 36.9178 39.0589 37.3658C39.0551 37.8137 38.8754 38.2422 38.5587 38.5589C38.2419 38.8756 37.8134 39.0553 37.3655 39.0592C36.9176 39.0631 36.4861 38.8909 36.1639 38.5797L34.9561 37.3719C34.6449 37.0497 34.4727 36.6182 34.4766 36.1703C34.4805 35.7224 34.6602 35.2939 34.9769 34.9771C35.2936 34.6604 35.7221 34.4807 36.17 34.4768C36.6179 34.473 37.0495 34.6451 37.3717 34.9563ZM27.5539 9.41675C28.3868 9.41657 29.1911 9.72064 29.8155 10.2718C30.44 10.823 30.8416 11.5833 30.9449 12.4097L31.5941 17.6031C33.5547 18.726 35.0893 20.4653 35.9594 22.5505C36.8294 24.6356 36.9862 26.9499 36.4052 29.1333C35.8242 31.3167 34.538 33.247 32.7467 34.624C30.9554 36.001 28.7593 36.7475 26.4998 36.7475C24.2404 36.7475 22.0443 36.001 20.253 34.624C18.4617 33.247 17.1755 31.3167 16.5945 29.1333C16.0135 26.9499 16.1702 24.6356 17.0403 22.5505C17.9103 20.4653 19.445 18.726 21.4056 17.6031L22.0548 12.4097C22.158 11.5833 22.5597 10.823 23.1841 10.2718C23.8086 9.72064 24.6129 9.41657 25.4458 9.41675H27.5539ZM26.4998 19.6667C24.6875 19.6667 22.9494 20.3867 21.6679 21.6682C20.3864 22.9497 19.6665 24.6878 19.6665 26.5001C19.6665 28.3124 20.3864 30.0505 21.6679 31.332C22.9494 32.6135 24.6875 33.3334 26.4998 33.3334C28.3122 33.3334 30.0502 32.6135 31.3317 31.332C32.6132 30.0505 33.3332 28.3124 33.3332 26.5001C33.3332 24.6878 32.6132 22.9497 31.3317 21.6682C30.0502 20.3867 28.3122 19.6667 26.4998 19.6667ZM12.8332 24.7917C13.2862 24.7917 13.7208 24.9717 14.0411 25.2921C14.3615 25.6125 14.5415 26.047 14.5415 26.5001C14.5415 26.9532 14.3615 27.3877 14.0411 27.7081C13.7208 28.0284 13.2862 28.2084 12.8332 28.2084H11.1248C10.6718 28.2084 10.2372 28.0284 9.91686 27.7081C9.59649 27.3877 9.4165 26.9532 9.4165 26.5001C9.4165 26.047 9.59649 25.6125 9.91686 25.2921C10.2372 24.9717 10.6718 24.7917 11.1248 24.7917H12.8332ZM41.8748 24.7917C42.3279 24.7917 42.7624 24.9717 43.0828 25.2921C43.4032 25.6125 43.5832 26.047 43.5832 26.5001C43.5832 26.9532 43.4032 27.3877 43.0828 27.7081C42.7624 28.0284 42.3279 28.2084 41.8748 28.2084H40.1665C39.7134 28.2084 39.2789 28.0284 38.9585 27.7081C38.6382 27.3877 38.4582 26.9532 38.4582 26.5001C38.4582 26.047 38.6382 25.6125 38.9585 25.2921C39.2789 24.9717 39.7134 24.7917 40.1665 24.7917H41.8748ZM38.5795 14.4222C38.8997 14.7425 39.0796 15.177 39.0796 15.63C39.0796 16.0829 38.8997 16.5174 38.5795 16.8377L37.3717 18.0455C37.2141 18.2087 37.0256 18.3388 36.8172 18.4284C36.6087 18.5179 36.3846 18.565 36.1577 18.567C35.9309 18.569 35.7059 18.5258 35.496 18.4399C35.2861 18.354 35.0953 18.2271 34.9349 18.0667C34.7745 17.9063 34.6477 17.7156 34.5618 17.5056C34.4759 17.2957 34.4326 17.0707 34.4346 16.8439C34.4366 16.6171 34.4837 16.3929 34.5732 16.1845C34.6628 15.976 34.7929 15.7875 34.9561 15.63L36.1639 14.4222C36.4842 14.1019 36.9187 13.922 37.3717 13.922C37.8247 13.922 38.2591 14.1019 38.5795 14.4222ZM16.8358 14.4222L18.0436 15.63C18.3471 15.9536 18.5128 16.3826 18.5056 16.8263C18.4983 17.2699 18.3188 17.6933 18.005 18.0069C17.6911 18.3205 17.2676 18.4998 16.824 18.5066C16.3803 18.5135 15.9514 18.3476 15.628 18.0438L14.4202 16.836C14.1167 16.5124 13.951 16.0834 13.9582 15.6397C13.9655 15.1961 14.145 14.7727 14.4588 14.4591C14.7727 14.1455 15.1962 13.9662 15.6398 13.9594C16.0835 13.9525 16.5124 14.1184 16.8358 14.4222ZM27.5539 12.8334H25.4458L25.0187 16.2501H27.981L27.5539 12.8334Z" fill="white"/>
<defs>
<linearGradient id="paint0_linear_949_389" x1="26.5" y1="0" x2="26.5" y2="53" gradientUnits="userSpaceOnUse">
<stop stop-color="#F3ADCE"/>
<stop offset="1" stop-color="#C071B4"/>
</linearGradient>
</defs>
</svg>
