<svg width="112" height="112" viewBox="0 0 112 112" fill="none" xmlns="http://www.w3.org/2000/svg">
<g filter="url(#filter0_d_951_392)">
<circle cx="56" cy="52" r="46" fill="url(#paint0_linear_951_392)"/>
</g>
<path d="M56.5002 28.5833C69.157 28.5833 79.4168 38.843 79.4168 51.4999C79.4168 64.1568 69.157 74.4166 56.5002 74.4166H38.1668C36.9513 74.4166 35.7855 73.9337 34.9259 73.0742C34.0664 72.2146 33.5835 71.0488 33.5835 69.8332V51.4999C33.5835 38.843 43.8433 28.5833 56.5002 28.5833ZM56.5002 56.0833H49.6252C49.0174 56.0833 48.4345 56.3247 48.0047 56.7545C47.5749 57.1842 47.3335 57.7671 47.3335 58.3749C47.3335 58.9827 47.5749 59.5656 48.0047 59.9954C48.4345 60.4251 49.0174 60.6666 49.6252 60.6666H56.5002C57.1079 60.6666 57.6908 60.4251 58.1206 59.9954C58.5504 59.5656 58.7918 58.9827 58.7918 58.3749C58.7918 57.7671 58.5504 57.1842 58.1206 56.7545C57.6908 56.3247 57.1079 56.0833 56.5002 56.0833ZM63.3752 46.9166H49.6252C49.0411 46.9172 48.4793 47.1409 48.0545 47.5419C47.6298 47.9428 47.3742 48.4909 47.34 49.0739C47.3057 49.657 47.4955 50.2312 47.8704 50.6791C48.2452 51.127 48.777 51.4149 49.357 51.4839L49.6252 51.4999H63.3752C63.9593 51.4993 64.5211 51.2756 64.9458 50.8746C65.3705 50.4737 65.6261 49.9256 65.6603 49.3426C65.6946 48.7595 65.5049 48.1853 65.13 47.7374C64.7551 47.2895 64.2233 47.0016 63.6433 46.9326L63.3752 46.9166Z" fill="white"/>
<defs>
<filter id="filter0_d_951_392" x="0" y="0" width="112" height="112" filterUnits="userSpaceOnUse" color-interpolation-filters="sRGB">
<feFlood flood-opacity="0" result="BackgroundImageFix"/>
<feColorMatrix in="SourceAlpha" type="matrix" values="0 0 0 0 0 0 0 0 0 0 0 0 0 0 0 0 0 0 127 0" result="hardAlpha"/>
<feOffset dy="4"/>
<feGaussianBlur stdDeviation="5"/>
<feComposite in2="hardAlpha" operator="out"/>
<feColorMatrix type="matrix" values="0 0 0 0 0 0 0 0 0 0 0 0 0 0 0 0 0 0 0.25 0"/>
<feBlend mode="normal" in2="BackgroundImageFix" result="effect1_dropShadow_951_392"/>
<feBlend mode="normal" in="SourceGraphic" in2="effect1_dropShadow_951_392" result="shape"/>
</filter>
<linearGradient id="paint0_linear_951_392" x1="56" y1="6" x2="56" y2="98" gradientUnits="userSpaceOnUse">
<stop stop-color="#FCE4DE"/>
<stop offset="1" stop-color="#F3ADCE"/>
</linearGradient>
</defs>
</svg>
